<svg width="512" height="512" viewBox="0 0 512 512" fill="none" xmlns="http://www.w3.org/2000/svg">
<g clip-path="url(#clip0_270_443)">
<path d="M48.1999 259.315C43.9469 263.57 46.4278 269.951 48.1999 271.885L107.645 219.189L103.295 210.487C86.7024 224.99 52.4528 255.061 48.1999 259.315Z" fill="#9CA3AF"/>
<path d="M107.645 219.189L48.1999 271.885C52.7107 275.753 66.6619 282.231 86.3802 275.269C106.099 268.307 111.995 264.633 118.278 259.315C124.56 253.997 132.293 245.779 132.293 245.779L107.645 219.189Z" fill="#9CA3AF"/>
<path fill-rule="evenodd" clip-rule="evenodd" d="M111.098 265.599L108.196 242.876L115.446 230.307L184.751 200.334L193.739 196.948C192.612 189.052 192.289 177.126 203.405 170.84C214.521 164.555 245.935 154.79 268.65 156.34C291.364 157.889 305.38 160.205 323.262 182.928C323.262 182.928 336.999 179.876 348.876 179.874C350.366 179.874 351.826 179.922 353.226 180.029C353.324 179.031 353.391 177.948 353.461 176.804C353.973 168.527 354.679 157.086 368.691 151.989C384.64 146.188 410.255 146.187 420.404 151.989C430.553 157.79 438.769 185.347 438.286 201.301C438.26 202.145 438.24 203.08 438.217 204.093V204.094C438.014 213.372 437.667 229.176 432.003 240.944C425.72 253.997 420.887 258.832 406.388 261.733C391.889 264.633 379.807 258.348 373.524 251.097C367.242 243.845 364.825 234.176 362.892 225.957C362.118 222.667 361.267 218.137 360.369 213.36C359.024 206.205 357.575 198.494 356.126 193.566C345.01 191.149 337.761 192.115 328.095 197.433C328.132 197.772 328.179 199.778 328.21 202.751C328.31 212.488 328.239 232.601 327.128 238.527C325.678 246.262 321.812 261.732 310.213 273.335C298.614 284.938 250.768 297.508 226.603 278.17C210.421 265.219 200.022 231.113 197.122 215.319L120.28 245.777L111.098 265.599ZM361.442 180.996C360.002 170.43 363.045 162.059 373.319 159.295C373.387 159.276 373.456 159.258 373.524 159.24C386.573 155.856 408.321 151.989 417.021 161.174C425.72 170.36 430.553 191.148 429.586 209.036C429.264 214.999 428.775 220.51 427.918 225.437C427.902 225.524 427.887 225.611 427.872 225.698C426.173 235.272 423.056 242.615 417.021 246.745C407.838 253.03 388.023 254.481 379.807 246.745C372.963 240.301 370.814 230.166 368.89 221.092C368.664 220.026 368.441 218.975 368.214 217.946C368.054 217.22 367.892 216.505 367.725 215.804C365.308 205.652 362.892 191.632 361.442 180.996ZM220.806 249.162C215.007 235.626 208.239 214.837 207.272 201.301C206.305 187.764 208.141 181.576 223.22 174.228C242.068 165.042 272.999 162.141 291.848 168.426C310.696 174.711 318.912 190.181 319.879 205.652C320.845 221.122 317.462 242.394 312.146 252.063C306.83 261.732 291.367 273.818 264.786 276.236C238.205 278.653 226.606 262.699 220.806 249.162Z" fill="#9CA3AF"/>
<path d="M111.098 265.599L118.347 266.565L126.562 249.645C132.361 247.324 189.39 226.924 189.39 226.924C194.384 246.101 210.945 286.292 237.236 293.64C270.1 302.826 304.413 280.272 310.213 273.335C298.614 284.938 250.768 297.508 226.603 278.17C210.421 265.219 200.022 231.113 197.122 215.319L120.28 245.777L111.098 265.599Z" fill="#9CA3AF"/>
<path d="M193.739 196.948C192.612 189.052 192.289 177.126 203.405 170.84C188.908 179.038 183.747 187.957 184.751 200.334L193.739 196.948Z" fill="#9CA3AF"/>
<path d="M356.126 193.566C345.01 191.149 337.761 192.115 328.095 197.433C328.132 197.772 328.179 199.778 328.21 202.751C333.004 200.173 344.333 195.79 351.293 198.884C351.293 198.884 354.151 213.871 357.092 227.407C360.034 240.944 361.442 249.163 369.658 257.381C379.807 268.984 406.388 261.733 406.388 261.733C391.889 264.633 379.807 258.348 373.524 251.097C367.242 243.845 364.825 234.176 362.892 225.957C362.118 222.667 361.267 218.137 360.369 213.36C359.024 206.205 357.575 198.494 356.126 193.566Z" fill="#9CA3AF"/>
<path d="M348.876 179.874C350.366 179.874 351.826 179.922 353.226 180.029C353.324 179.031 353.391 177.948 353.461 176.804C353.973 168.527 354.679 157.086 368.691 151.989C361.603 153.658 347.716 161.572 348.876 179.874Z" fill="#9CA3AF"/>
<path fill-rule="evenodd" clip-rule="evenodd" d="M350.326 147.154C248.835 151.989 180.691 188.249 110.613 228.376C100.142 210.649 85.4821 163.883 110.613 128.301C142.027 83.8237 209.688 66.9022 259.467 70.286C309.246 73.6699 335.344 116.695 350.326 147.154ZM258.499 139.903C280.912 132.28 307.483 127.734 326.643 127.733C328.14 127.733 329.591 127.76 330.992 127.816C318.051 100.722 291.618 98.7478 274.447 109.403C264.043 115.859 257.04 126.952 258.499 139.903Z" fill="#9CA3AF"/>
<path fill-rule="evenodd" clip-rule="evenodd" d="M186.49 376.794C119.733 342.548 115.875 290.486 112.512 245.111C112.077 239.241 111.651 233.484 111.097 227.891C157.976 166.976 314.563 137.194 351.293 147.637C359.853 150.07 367.144 154.179 373.319 159.295C363.045 162.059 360.002 170.43 361.442 180.996C362.892 191.632 365.308 205.652 367.725 215.804C367.892 216.505 368.054 217.22 368.214 217.946C374.859 217.254 382.535 217.301 391.401 218.221C406.092 219.746 418.119 222.265 427.872 225.698C427.887 225.611 427.902 225.524 427.918 225.437C437.623 228.759 445.671 232.946 451.846 239.768C459.39 247.274 463.201 256.444 464.379 267.05C464.539 268.495 464.664 269.92 464.755 271.326C470.198 307.919 459.166 347.677 441.185 365.19C422.82 383.078 391.889 399.516 331.961 402.9C272.033 406.285 213.876 390.492 186.49 376.794ZM207.272 201.301C208.239 214.837 215.007 235.626 220.806 249.162C226.606 262.699 238.205 278.653 264.786 276.236C291.367 273.818 306.83 261.732 312.146 252.063C317.462 242.394 320.845 221.122 319.879 205.652C318.912 190.181 310.696 174.711 291.848 168.426C272.999 162.141 242.068 165.042 223.22 174.228C208.141 181.576 206.305 187.764 207.272 201.301ZM414.797 277.059C413.075 279.629 408.115 279.322 403.718 276.375C399.321 273.427 397.152 268.955 398.873 266.385C400.594 263.816 405.554 264.122 409.951 267.069C414.349 270.017 416.518 274.489 414.797 277.059ZM447.963 267.317C445.101 270.046 444.072 273.613 445.665 275.286C447.259 276.959 450.871 276.103 453.733 273.374C456.595 270.646 457.624 267.078 456.03 265.405C454.437 263.733 450.825 264.589 447.963 267.317Z" fill="#9CA3AF"/>
<path d="M225.938 327.064C95.7504 327.064 80.6487 413.118 65.1833 525.1L408.322 522.378C408.322 462.699 356.126 327.064 225.938 327.064Z" fill="#9CA3AF"/>
</g>
<defs>
<clipPath id="clip0_270_443">
<rect width="512" height="512" fill="white"/>
</clipPath>
</defs>
</svg>
