<svg width="436" height="346" viewBox="0 0 436 346" fill="none" xmlns="http://www.w3.org/2000/svg">
<path d="M3.43142 196.5C-0.96858 200.9 1.59809 207.5 3.43142 209.5L64.9316 155L60.4316 146C43.2649 161 7.83142 192.1 3.43142 196.5Z" fill="#78B448"/>
<path d="M64.9316 155L3.43142 209.5C8.09816 213.5 22.5316 220.2 42.9316 213C63.3316 205.8 69.4316 202 75.9316 196.5C82.4316 191 90.4316 182.5 90.4316 182.5L64.9316 155Z" fill="#4A8339"/>
<path d="M146.502 318C68.5029 278 73.502 214.5 68.5029 164C117.002 101 279.002 70.1989 317.002 80.9989C355.002 91.7989 368.835 134.5 371.002 154.5C405.002 162.999 427.502 167.999 434.002 206.499C440.502 244.999 429.002 287.499 410.002 305.999C391.002 324.499 359.002 341.5 297.002 345C235.002 348.5 174.835 332.166 146.502 318Z" fill="#96DDF0"/>
<path d="M316.002 80.499C211.002 85.499 140.502 123.001 68.0024 164.501C57.169 146.167 42.0025 97.8006 68.0025 61.0006C100.502 15.0006 170.502 -2.50009 222.002 0.99957C273.502 4.49923 300.501 48.9974 316.002 80.499Z" fill="#D2EE6D"/>
<path d="M168.002 136.501C169.003 150.501 176.004 172.001 182.004 186.001C188.004 200.001 200.004 216.501 227.504 214.001C255.004 211.501 271.002 199.001 276.502 189.001C282.002 179.001 285.502 157.001 284.502 141.001C283.502 125.001 275.002 109.001 255.502 102.501C236.002 96.0008 204.002 99.0008 184.502 108.501C168.902 116.101 167.002 122.501 168.002 136.501Z" fill="white" fill-opacity="0.5"/>
<path d="M327.502 115.501C326.002 104.501 329.202 95.8008 340.002 93.0008C353.502 89.5008 376.002 85.5008 385.002 95.0008C394.002 104.501 399.002 126.001 398.002 144.501C397.012 162.811 394.502 177.001 385.002 183.501C375.502 190.001 355.002 191.501 346.502 183.501C339.421 176.836 337.198 166.354 335.207 156.97C334.809 155.09 334.419 153.253 334.002 151.501C331.502 141.001 329.002 126.501 327.502 115.501Z" fill="white" fill-opacity="0.5"/>
<ellipse cx="243" cy="164.5" rx="35" ry="52.5" fill="white"/>
<ellipse cx="247" cy="166.5" rx="23" ry="34.5" fill="#23535F"/>
<circle cx="257.5" cy="145.5" r="8.5" fill="white"/>
<ellipse cx="358.01" cy="139.95" rx="22.2376" ry="38.452" transform="rotate(-13.4939 358.01 139.95)" fill="white"/>
<ellipse cx="360.077" cy="141.091" rx="13.6271" ry="24.5077" transform="rotate(-13.4939 360.077 141.091)" fill="#23535F"/>
<circle cx="365.5" cy="126.5" r="5.5" fill="white"/>
<path fill-rule="evenodd" clip-rule="evenodd" d="M68.5035 202.998L65.502 179.498L73.002 166.498L144.703 135.5L154.002 131.998C152.835 123.832 152.502 111.497 164.002 104.997C175.502 98.4964 208.002 88.3971 231.502 89.9997C255.002 91.6024 269.502 93.9978 288.002 117.498C288.002 117.498 302.214 114.341 314.502 114.34C316.043 114.339 317.553 114.389 319.002 114.5C319.103 113.468 319.172 112.347 319.245 111.164C319.774 102.604 320.506 90.7712 335.002 85.5001C351.502 79.5005 378.002 79.4998 388.502 85.4998C399.002 91.4998 407.502 120 407.002 136.5C406.975 137.373 406.954 138.34 406.931 139.387V139.389C406.721 148.984 406.362 165.329 400.502 177.5C394.002 191 389.002 196 374.002 199C359.002 202 346.502 195.5 340.002 188C333.502 180.5 331.002 170.5 329.002 162C328.201 158.597 327.321 153.912 326.392 148.972C325 141.571 323.501 133.597 322.002 128.5C310.502 126 303.002 127 293.002 132.5C293.041 132.851 293.089 134.925 293.121 138C293.224 148.07 293.151 168.871 292.002 175C290.502 183 286.502 199 274.502 211C262.502 223 213.002 236 188.002 216C171.26 202.606 160.502 167.332 157.502 150.998L78.0035 182.498L68.5035 202.998ZM327.502 115.5C326.002 104.5 329.202 95.8 340.002 93C353.502 89.5 376.002 85.5 385.002 95C394.002 104.5 399.002 126 398.002 144.5C397.012 162.81 394.502 177 385.002 183.5C375.502 190 355.002 191.5 346.502 183.5C339.421 176.835 337.198 166.353 335.207 156.969C334.809 155.089 334.419 153.253 334.002 151.5C331.502 141 329.002 126.5 327.502 115.5ZM182.004 186C176.004 172 169.003 150.5 168.002 136.5C167.002 122.5 168.902 116.1 184.502 108.5C204.002 99.0001 236.002 96 255.502 102.5C275.002 109 283.502 125 284.502 141C285.502 157 282.002 179 276.502 189C271.002 199 255.004 211.5 227.504 214C200.004 216.5 188.004 200 182.004 186Z" fill="#3FCED2"/>
<path d="M68.5035 202.998L76.0035 203.998L84.502 186.498C90.502 184.098 149.502 163 149.502 163C154.669 182.833 171.802 224.4 199.002 232C233.002 241.5 268.502 218.174 274.502 211C262.502 223 213.002 236 188.002 216C171.26 202.606 160.502 167.332 157.502 150.998L78.0035 182.498L68.5035 202.998Z" fill="#199E99"/>
<path d="M154.002 131.998C152.835 123.832 152.502 111.497 164.002 104.997C149.004 113.475 143.664 122.7 144.703 135.5L154.002 131.998Z" fill="#199E99"/>
<path d="M322.002 128.5C310.502 126 303.002 127 293.002 132.5C293.041 132.851 293.089 134.925 293.121 138C298.081 135.333 309.802 130.8 317.002 134C317.002 134 319.958 149.5 323.002 163.5C326.045 177.5 327.502 186 336.002 194.5C346.502 206.5 374.002 199 374.002 199C359.002 202 346.502 195.5 340.002 188C333.502 180.5 331.002 170.5 329.002 162C328.201 158.597 327.321 153.912 326.392 148.972C325 141.571 323.501 133.597 322.002 128.5Z" fill="#199E99"/>
<path d="M314.502 114.34C316.043 114.339 317.553 114.389 319.002 114.5C319.103 113.468 319.172 112.347 319.245 111.164C319.774 102.604 320.506 90.7712 335.002 85.5001C327.669 87.2264 313.302 95.4112 314.502 114.34Z" fill="#199E99"/>
<path d="M358.497 154.001C316.097 149.601 299.995 164.501 293.995 185.001C287.995 205.501 286.001 218.001 298.501 238.501C311.001 259.001 330.002 270.001 359.502 273.501C389.002 277.001 406.999 271.001 417.499 261.501C427.999 252.001 436.997 231.5 433.997 204.5C430.997 177.5 411.497 159.501 358.497 154.001Z" fill="#96DDF0"/>
<ellipse cx="374.464" cy="209.331" rx="9.91539" ry="5.79243" transform="rotate(33.8249 374.464 209.331)" fill="#245663"/>
<ellipse cx="419.998" cy="207.907" rx="7.40622" ry="4.32661" transform="rotate(136.379 419.998 207.907)" fill="#245663"/>
<path d="M423 282C409 288.667 382.5 299 332.5 297.5C282.5 296 256.5 276 256.5 257.5C250.5 263 247 264.5 241.5 266" stroke="#23535F" stroke-width="8"/>
<path fill-rule="evenodd" clip-rule="evenodd" d="M221 73.0003C244.188 65.1163 271.678 60.4154 291.5 60.4139C281.5 46.5 265.5 35 237.5 41.4571C226.737 48.1341 219.491 59.6063 221 73.0003Z" fill="#B5ECF8"/>
<path d="M291.5 60.4139C293.049 60.4138 294.551 60.4423 296 60.5003C282.612 32.4787 255.264 30.4369 237.5 41.4571C265.5 35 281.5 46.5 291.5 60.4139Z" fill="#199E99"/>
</svg>
