<svg width="862" height="224" viewBox="0 0 862 224" fill="none" xmlns="http://www.w3.org/2000/svg">
<path d="M28.8 112.56V83.28H65.28C69.92 83.28 74.16 82.32 78 80.4C81.84 78.48 84.88 75.68 87.12 72C89.36 68.32 90.48 63.84 90.48 58.56C90.48 53.44 89.36 49.04 87.12 45.36C84.88 41.68 81.84 38.88 78 36.96C74.16 35.04 69.92 34.08 65.28 34.08H28.8V4.8H70.8C81.52 4.8 91.2 6.96 99.84 11.28C108.48 15.6 115.28 21.84 120.24 30C125.36 38 127.92 47.52 127.92 58.56C127.92 69.6 125.36 79.2 120.24 87.36C115.28 95.36 108.48 101.6 99.84 106.08C91.2 110.4 81.52 112.56 70.8 112.56H28.8ZM0 174.24V4.8H37.68V174.24H0ZM147.343 174.24V57.6H184.063V174.24H147.343ZM165.823 41.52C160.063 41.52 155.263 39.6 151.423 35.76C147.743 31.76 145.903 26.96 145.903 21.36C145.903 15.6 147.743 10.8 151.423 6.96C155.263 3.12 160.063 1.2 165.823 1.2C171.583 1.2 176.303 3.12 179.983 6.96C183.663 10.8 185.503 15.6 185.503 21.36C185.503 26.96 183.663 31.76 179.983 35.76C176.303 39.6 171.583 41.52 165.823 41.52ZM286.961 174.24V107.76C286.961 101.68 285.041 96.8 281.201 93.12C277.521 89.28 272.801 87.36 267.041 87.36C263.041 87.36 259.521 88.24 256.481 90C253.441 91.6 251.041 94 249.281 97.2C247.521 100.24 246.641 103.76 246.641 107.76L232.481 100.8C232.481 91.68 234.481 83.68 238.481 76.8C242.481 69.92 248.001 64.64 255.041 60.96C262.241 57.12 270.321 55.2 279.281 55.2C287.921 55.2 295.521 57.28 302.081 61.44C308.801 65.44 314.081 70.8 317.921 77.52C321.761 84.24 323.681 91.6 323.681 99.6V174.24H286.961ZM209.921 174.24V57.6H246.641V174.24H209.921ZM362.419 174.24V9.36H399.139V174.24H362.419ZM336.019 88.8V57.6H425.539V88.8H336.019ZM488.094 176.64C477.374 176.64 467.774 174 459.294 168.72C450.974 163.44 444.334 156.24 439.374 147.12C434.574 138 432.174 127.6 432.174 115.92C432.174 104.24 434.574 93.84 439.374 84.72C444.334 75.6 450.974 68.4 459.294 63.12C467.774 57.84 477.374 55.2 488.094 55.2C495.934 55.2 502.974 56.72 509.214 59.76C515.614 62.8 520.814 67.04 524.814 72.48C528.814 77.76 531.054 83.84 531.534 90.72V141.12C531.054 148 528.814 154.16 524.814 159.6C520.974 164.88 515.854 169.04 509.454 172.08C503.054 175.12 495.934 176.64 488.094 176.64ZM495.534 143.52C503.374 143.52 509.694 140.96 514.494 135.84C519.294 130.56 521.694 123.92 521.694 115.92C521.694 110.48 520.574 105.68 518.334 101.52C516.254 97.36 513.214 94.16 509.214 91.92C505.374 89.52 500.894 88.32 495.774 88.32C490.654 88.32 486.094 89.52 482.094 91.92C478.254 94.16 475.134 97.36 472.734 101.52C470.494 105.68 469.374 110.48 469.374 115.92C469.374 121.2 470.494 125.92 472.734 130.08C474.974 134.24 478.094 137.52 482.094 139.92C486.094 142.32 490.574 143.52 495.534 143.52ZM520.254 174.24V142.8L525.774 114.48L520.254 86.16V57.6H556.254V174.24H520.254ZM582.109 174.24V57.6H618.829V174.24H582.109ZM618.829 110.16L603.469 98.16C606.509 84.56 611.629 74 618.829 66.48C626.029 58.96 636.029 55.2 648.829 55.2C654.429 55.2 659.309 56.08 663.469 57.84C667.789 59.44 671.549 62 674.749 65.52L652.909 93.12C651.309 91.36 649.309 90 646.909 89.04C644.509 88.08 641.789 87.6 638.749 87.6C632.669 87.6 627.789 89.52 624.109 93.36C620.589 97.04 618.829 102.64 618.829 110.16ZM684.531 174.24V0H721.251V174.24H684.531ZM783.109 174.72L735.109 57.6H774.709L805.189 150.48H790.549L821.749 57.6H861.349L811.429 174.72H783.109ZM753.109 223.44L788.149 147.84L811.429 174.72L790.789 223.44H753.109Z" fill="black"/>
</svg>
