<svg width="879" height="282" viewBox="0 0 879 282" fill="none" xmlns="http://www.w3.org/2000/svg">
<path d="M45.12 170.32V141.04H81.6C86.24 141.04 90.48 140.08 94.32 138.16C98.16 136.24 101.2 133.44 103.44 129.76C105.68 126.08 106.8 121.6 106.8 116.32C106.8 111.2 105.68 106.8 103.44 103.12C101.2 99.44 98.16 96.64 94.32 94.72C90.48 92.8 86.24 91.84 81.6 91.84H45.12V62.56H87.12C97.84 62.56 107.52 64.72 116.16 69.04C124.8 73.36 131.6 79.6 136.56 87.76C141.68 95.76 144.24 105.28 144.24 116.32C144.24 127.36 141.68 136.96 136.56 145.12C131.6 153.12 124.8 159.36 116.16 163.84C107.52 168.16 97.84 170.32 87.12 170.32H45.12ZM16.32 232V62.56H54V232H16.32ZM163.663 232V115.36H200.383V232H163.663ZM182.143 99.28C176.383 99.28 171.583 97.36 167.743 93.52C164.063 89.52 162.223 84.72 162.223 79.12C162.223 73.36 164.063 68.56 167.743 64.72C171.583 60.88 176.383 58.96 182.143 58.96C187.903 58.96 192.623 60.88 196.303 64.72C199.983 68.56 201.823 73.36 201.823 79.12C201.823 84.72 199.983 89.52 196.303 93.52C192.623 97.36 187.903 99.28 182.143 99.28ZM303.281 232V165.52C303.281 159.44 301.361 154.56 297.521 150.88C293.841 147.04 289.121 145.12 283.361 145.12C279.361 145.12 275.841 146 272.801 147.76C269.761 149.36 267.361 151.76 265.601 154.96C263.841 158 262.961 161.52 262.961 165.52L248.801 158.56C248.801 149.44 250.801 141.44 254.801 134.56C258.801 127.68 264.321 122.4 271.361 118.72C278.561 114.88 286.641 112.96 295.601 112.96C304.241 112.96 311.841 115.04 318.401 119.2C325.121 123.2 330.401 128.56 334.241 135.28C338.081 142 340.001 149.36 340.001 157.36V232H303.281ZM226.241 232V115.36H262.961V232H226.241ZM378.739 232V67.12H415.459V232H378.739ZM352.339 146.56V115.36H441.859V146.56H352.339ZM504.414 234.4C493.694 234.4 484.094 231.76 475.614 226.48C467.294 221.2 460.654 214 455.694 204.88C450.894 195.76 448.494 185.36 448.494 173.68C448.494 162 450.894 151.6 455.694 142.48C460.654 133.36 467.294 126.16 475.614 120.88C484.094 115.6 493.694 112.96 504.414 112.96C512.254 112.96 519.294 114.48 525.534 117.52C531.934 120.56 537.134 124.8 541.134 130.24C545.134 135.52 547.374 141.6 547.854 148.48V198.88C547.374 205.76 545.134 211.92 541.134 217.36C537.294 222.64 532.174 226.8 525.774 229.84C519.374 232.88 512.254 234.4 504.414 234.4ZM511.854 201.28C519.694 201.28 526.014 198.72 530.814 193.6C535.614 188.32 538.014 181.68 538.014 173.68C538.014 168.24 536.894 163.44 534.654 159.28C532.574 155.12 529.534 151.92 525.534 149.68C521.694 147.28 517.214 146.08 512.094 146.08C506.974 146.08 502.414 147.28 498.414 149.68C494.574 151.92 491.454 155.12 489.054 159.28C486.814 163.44 485.694 168.24 485.694 173.68C485.694 178.96 486.814 183.68 489.054 187.84C491.294 192 494.414 195.28 498.414 197.68C502.414 200.08 506.894 201.28 511.854 201.28ZM536.574 232V200.56L542.094 172.24L536.574 143.92V115.36H572.574V232H536.574ZM598.429 232V115.36H635.149V232H598.429ZM635.149 167.92L619.789 155.92C622.829 142.32 627.949 131.76 635.149 124.24C642.349 116.72 652.349 112.96 665.149 112.96C670.749 112.96 675.629 113.84 679.789 115.6C684.109 117.2 687.869 119.76 691.069 123.28L669.229 150.88C667.629 149.12 665.629 147.76 663.229 146.8C660.829 145.84 658.109 145.36 655.069 145.36C648.989 145.36 644.109 147.28 640.429 151.12C636.909 154.8 635.149 160.4 635.149 167.92ZM700.851 232V57.76H737.571V232H700.851ZM799.429 232.48L751.429 115.36H791.029L821.509 208.24H806.869L838.069 115.36H877.669L827.749 232.48H799.429ZM769.429 281.2L804.469 205.6L827.749 232.48L807.109 281.2H769.429Z" fill="white"/>
<rect x="175" width="11" height="43" fill="white"/>
<rect x="259" y="73" width="11" height="43" transform="rotate(90 259 73)" fill="white"/>
<rect x="234.848" y="18" width="11" height="43" transform="rotate(47.7865 234.848 18)" fill="white"/>
</svg>
